<svg width="1872" height="1830" viewBox="0 0 1872 1830" fill="none" xmlns="http://www.w3.org/2000/svg">
<g opacity="0.1">
<path fill-rule="evenodd" clip-rule="evenodd" d="M1051.25 242.034C665.75 175.819 299.561 434.651 233.346 820.153C209.815 957.145 227.305 1091.54 276.883 1210.97C334.7 1350.24 436.143 1469.09 567.023 1547.62C592.067 1562.65 600.188 1595.13 585.162 1620.17C570.135 1645.22 537.652 1653.34 512.609 1638.31C362.075 1547.99 245.596 1411.45 179.203 1251.52C122.182 1114.17 102.094 959.528 129.109 802.249C205.213 359.179 626.086 61.694 1069.16 137.797C1512.23 213.901 1809.71 634.774 1733.61 1077.84C1728.66 1106.63 1701.32 1125.95 1672.54 1121.01C1643.75 1116.07 1624.43 1088.72 1629.37 1059.94C1695.59 674.438 1436.75 308.249 1051.25 242.034Z" stroke="white" stroke-opacity="0.5" stroke-linecap="round" stroke-linejoin="round"/>
<path fill-rule="evenodd" clip-rule="evenodd" d="M1018.51 432.637C738.279 384.503 472.084 572.657 423.95 852.891C409.765 935.471 416.085 1016.68 439.161 1091.46C447.773 1119.37 432.132 1148.97 404.224 1157.59C376.317 1166.2 346.713 1150.56 338.101 1122.65C310.234 1032.35 302.65 934.326 319.713 834.987C377.735 497.185 698.614 270.379 1036.42 328.401C1374.22 386.423 1601.02 707.302 1543 1045.1C1484.98 1382.91 1164.1 1609.71 826.299 1551.69C706.553 1531.12 600.617 1477.45 516.447 1401.66C494.743 1382.12 492.99 1348.68 512.532 1326.98C532.075 1305.27 565.512 1303.52 587.216 1323.06C656.976 1385.87 744.718 1430.37 844.203 1447.45C1124.44 1495.59 1390.63 1307.43 1438.77 1027.2C1486.9 746.966 1298.75 480.771 1018.51 432.637Z" stroke="white" stroke-opacity="0.5" stroke-linecap="round" stroke-linejoin="round"/>
<path fill-rule="evenodd" clip-rule="evenodd" d="M986.028 621.752C810.24 591.558 643.258 709.586 613.064 885.374C582.869 1061.16 700.897 1228.15 876.686 1258.34C1052.47 1288.53 1219.46 1170.51 1249.65 994.717C1279.84 818.929 1161.82 651.947 986.028 621.752ZM508.827 867.47C548.909 634.114 770.576 477.434 1003.93 517.516C1237.29 557.598 1393.97 779.264 1353.89 1012.62C1313.8 1245.98 1092.14 1402.66 858.782 1362.58C625.425 1322.49 468.745 1100.83 508.827 867.47Z" stroke="white" stroke-opacity="0.5" stroke-linejoin="round"/>
</g>
</svg>
