<svg width="48" height="34" viewBox="0 0 48 34" fill="none" xmlns="http://www.w3.org/2000/svg">
<path d="M10.5753 27.2215C21.0141 31.4275 29.8975 32.2468 39.9643 25.7C39.8906 25.8142 37.8992 28.8601 32.6627 30.4211C33.7689 31.9822 35.2809 33.7716 35.2809 33.7716C38.6368 33.7716 41.9189 32.7816 44.7583 30.8779C46.971 29.355 48.2247 26.7279 47.9666 23.9866C47.5241 19.3035 46.4546 14.7346 44.7952 10.3562C42.6932 4.64516 37.6411 0.685426 31.7776 0.114275C31.2613 0.0761837 30.8926 0.0761839 30.6713 0.0761839L30.0814 0.685313C36.8299 2.66518 40.1857 5.74914 40.2594 5.86342C29.8969 0.456874 17.6538 0.380804 7.21747 5.63498C7.21747 5.63498 10.5364 2.2464 17.8749 0.456875L17.4324 0C16.6579 0 15.9204 0.0761833 15.146 0.190346C9.72508 1.14219 5.18926 4.98765 3.23474 10.2799C1.53836 14.8488 0.43208 19.6461 0.0264605 24.5196C-0.194796 27.1086 0.985276 29.6596 3.05038 31.1445C5.77925 33.0101 9.02442 34 12.3065 34C12.3065 34 13.634 32.2105 14.9617 30.6114C9.98323 29.0884 7.95503 26.0426 7.91813 25.9283L8.85505 26.4222C9.41515 26.7177 9.98936 26.9854 10.5753 27.2215ZM16.363 23.9104C13.966 23.8342 12.0852 21.7402 12.159 19.2273C12.2328 16.8667 14.0766 14.9631 16.363 14.8869C18.76 14.9631 20.6408 17.0571 20.567 19.57C20.4563 21.9307 18.6494 23.8344 16.363 23.9104ZM31.4088 23.9104C29.0117 23.8342 27.131 21.7402 27.2048 19.2273C27.2786 16.8667 29.1224 14.9631 31.4088 14.8869C33.8058 14.9631 35.6866 17.0571 35.6128 19.57C35.5391 21.9307 33.6951 23.8344 31.4088 23.9104Z" fill="white"/>
</svg>
