<svg width="160" height="120" viewBox="0 0 160 120" fill="none" xmlns="http://www.w3.org/2000/svg">
<circle cx="82" cy="52" r="52" fill="#EAECF0"/>
<g filter="url(#filter0_dd_4500_648)">
<path d="M47.7266 79.1101L80.9651 63.6107C82.6339 62.8325 83.3559 60.8488 82.5777 59.18L62.9484 17.0848L49.6563 12.2469L22.4611 24.9282C20.7923 25.7064 20.0703 27.6901 20.8485 29.3589L43.2959 77.4974C44.074 79.1663 46.0577 79.8883 47.7266 79.1101Z" fill="url(#paint0_linear_4500_648)"/>
<path d="M49.6567 12.247L62.9489 17.085L53.8838 21.3121L49.6567 12.247Z" fill="#D0D5DD"/>
<path d="M32.7876 43.858L33.6997 43.4288L37.0097 47.0435L37.017 47.0401L36.3418 42.1856L37.2539 41.7564L37.923 47.7631L36.9892 48.2025L32.7876 43.858ZM40.5871 43.1763C40.4611 42.9085 40.2064 42.7807 39.6997 43.0192C39.0917 43.3053 38.9558 43.5991 39.1445 44.0939L38.4061 44.4413C38.1085 43.7149 38.3023 42.9429 39.417 42.4184C40.235 42.0335 40.9895 42.0586 41.4527 43.0431L42.2804 44.8021C42.4031 45.0627 42.5257 45.1729 42.8088 45.0043L42.9791 45.3663C42.8361 45.5132 42.7198 45.5855 42.5751 45.6537C42.1697 45.8444 41.9134 45.7882 41.6707 45.4603L41.6562 45.4671C41.5778 45.9019 41.2636 46.3238 40.6917 46.5929C39.9389 46.9472 39.2713 46.7308 38.9783 46.1083C38.5968 45.2976 39.0784 44.7615 39.9198 44.1446C40.4406 43.7669 40.754 43.531 40.5871 43.1763ZM40.5755 45.9138C41.2053 45.6174 41.4931 45.1018 41.2104 44.501L40.9481 43.9436C40.866 44.0884 40.61 44.3149 40.2894 44.5542C39.7244 44.9881 39.5345 45.2985 39.7116 45.6749C39.8717 46.0151 40.1629 46.1079 40.5755 45.9138ZM41.0096 39.9891L41.7769 39.6281L44.2123 44.8037L43.445 45.1647L41.0096 39.9891ZM46.6663 43.7816C45.5081 44.3265 44.4279 43.8535 43.8863 42.7025C43.3448 41.5516 43.6688 40.4177 44.827 39.8727C45.9852 39.3277 47.0654 39.8008 47.607 40.9517C48.1486 42.1027 47.8245 43.2366 46.6663 43.7816ZM46.3734 43.159C47.0973 42.8184 47.2046 42.0694 46.8469 41.3094C46.4859 40.5421 45.8438 40.1546 45.1199 40.4952C44.3961 40.8358 44.2853 41.5776 44.6464 42.3449C45.004 43.1049 45.6495 43.4997 46.3734 43.159ZM48.9785 37.9369C49.1087 37.8756 49.2063 37.8385 49.3216 37.8019L49.6589 38.5186L49.6444 38.5254C48.8554 38.7463 48.5007 39.5145 48.8719 40.3035L49.7609 42.1928L49.0009 42.5504L47.2603 38.8515L48.0204 38.4938L48.3474 39.1887L48.3619 39.1819C48.3393 38.6267 48.4935 38.1651 48.9785 37.9369ZM53.0391 40.6502L50.6037 35.4746L51.5665 35.0215L55.7264 37.8119L55.7409 37.8051L53.9118 33.9179L54.7732 33.5126L57.2086 38.6882L56.2531 39.1379L52.0927 36.3654L52.0782 36.3722L53.9005 40.2449L53.0391 40.6502ZM57.572 34.9276L59.8087 33.8751L60.1561 34.6135L57.9194 35.666L58.9549 37.8665L58.0935 38.2719L55.6581 33.0962L59.2774 31.3932L59.6214 32.1243L56.8635 33.422L57.572 34.9276ZM63.7169 35.6257L61.6256 31.1812L59.9679 31.9612L59.6239 31.2301L63.7933 29.2682L64.1374 29.9993L62.487 30.7759L64.5783 35.2204L63.7169 35.6257Z" fill="#D0D5DD"/>
</g>
<g filter="url(#filter1_dd_4500_648)">
<path d="M63.6163 67.7831H100.291C102.132 67.7831 103.625 66.2904 103.625 64.4491V18.0022L93.6228 8H63.6163C61.7749 8 60.2822 9.49271 60.2822 11.3341V64.4491C60.2822 66.2904 61.7749 67.7831 63.6163 67.7831Z" fill="url(#paint1_linear_4500_648)"/>
<path d="M93.6226 8L103.625 18.0022H93.6226V8Z" fill="#D0D5DD"/>
<path d="M64.3097 24.28H65.3177L66.7737 28.96H66.7817L68.2377 24.28H69.2457L67.2937 30H66.2617L64.3097 24.28ZM71.6572 26.984C71.6572 26.688 71.4812 26.464 70.9212 26.464C70.2492 26.464 70.0012 26.672 69.9612 27.2H69.1452C69.1852 26.416 69.6892 25.8 70.9212 25.8C71.8252 25.8 72.4972 26.144 72.4972 27.232V29.176C72.4972 29.464 72.5612 29.616 72.8892 29.584V29.984C72.6972 30.056 72.5612 30.072 72.4012 30.072C71.9532 30.072 71.7452 29.912 71.6652 29.512H71.6492C71.3932 29.872 70.9292 30.12 70.2972 30.12C69.4652 30.12 68.9532 29.64 68.9532 28.952C68.9532 28.056 69.6172 27.776 70.6412 27.576C71.2732 27.456 71.6572 27.376 71.6572 26.984ZM70.4812 29.456C71.1772 29.456 71.6572 29.112 71.6572 28.448V27.832C71.5212 27.928 71.1932 28.024 70.8012 28.104C70.1052 28.256 69.8012 28.456 69.8012 28.872C69.8012 29.248 70.0252 29.456 70.4812 29.456ZM73.3965 24.28H74.2445V30H73.3965V24.28ZM76.9002 30.12C75.6202 30.12 74.8442 29.232 74.8442 27.96C74.8442 26.688 75.6202 25.8 76.9002 25.8C78.1802 25.8 78.9562 26.688 78.9562 27.96C78.9562 29.232 78.1802 30.12 76.9002 30.12ZM76.9002 29.432C77.7002 29.432 78.1162 28.8 78.1162 27.96C78.1162 27.112 77.7002 26.488 76.9002 26.488C76.1002 26.488 75.6842 27.112 75.6842 27.96C75.6842 28.8 76.1002 29.432 76.9002 29.432ZM81.4807 25.816C81.6247 25.816 81.7287 25.824 81.8487 25.84V26.632H81.8327C81.0247 26.496 80.3767 27.04 80.3767 27.912V30H79.5367V25.912H80.3767V26.68H80.3927C80.6087 26.168 80.9447 25.816 81.4807 25.816ZM83.9997 30V24.28H85.0637L87.6397 28.576H87.6557V24.28H88.6077V30H87.5517L84.9677 25.72H84.9517V30H83.9997ZM90.5377 26.752H93.0097V27.568H90.5377V30H89.5857V24.28H93.5857V25.088H90.5377V26.752ZM95.8006 30V25.088H93.9686V24.28H98.5766V25.088H96.7526V30H95.8006Z" fill="#D0D5DD"/>
</g>
<g filter="url(#filter2_dd_4500_648)">
<path d="M82.4745 63.5909L115.713 79.0903C117.382 79.8685 119.366 79.1465 120.144 77.4777L139.773 35.3825L134.935 22.0903L107.74 9.40903C106.071 8.63085 104.087 9.35286 103.309 11.0217L80.8619 59.1602C80.0837 60.8291 80.8057 62.8128 82.4745 63.5909Z" fill="url(#paint2_linear_4500_648)"/>
<path d="M134.936 22.0903L139.773 35.3824L130.708 31.1553L134.936 22.0903Z" fill="#D0D5DD"/>
<path d="M98.9891 30.9398L99.9026 31.3658L99.2441 36.2226L99.2513 36.226L102.549 32.6L103.463 33.026L99.2758 37.385L98.3405 36.9488L98.9891 30.9398ZM104.505 36.4959C104.63 36.2276 104.565 35.9502 104.058 35.7135C103.449 35.4295 103.136 35.5132 102.877 35.9748L102.137 35.6299C102.505 34.9363 103.222 34.591 104.338 35.1117C105.158 35.4938 105.621 36.0896 105.162 37.0757L104.34 38.8375C104.218 39.0985 104.212 39.2633 104.523 39.3729L104.354 39.7355C104.149 39.7196 104.019 39.6766 103.874 39.6089C103.468 39.4196 103.347 39.1867 103.444 38.7903L103.429 38.7836C103.045 39.0016 102.52 39.0303 101.947 38.7632C101.193 38.4115 100.932 37.7601 101.223 37.1366C101.601 36.3245 102.321 36.3514 103.334 36.603C103.958 36.7613 104.339 36.8511 104.505 36.4959ZM102.394 38.2392C103.025 38.5333 103.606 38.4244 103.886 37.8227L104.147 37.2644C103.983 37.2939 103.645 37.2423 103.256 37.1491C102.561 36.9927 102.201 37.0455 102.025 37.4225C101.866 37.7632 101.981 38.0464 102.394 38.2392ZM107.224 34.7804L107.993 35.1388L105.575 40.3228L104.807 39.9644L107.224 34.7804ZM107.931 41.554C106.771 41.013 106.443 39.8802 106.981 38.7274C107.519 37.5746 108.597 37.0978 109.757 37.6389C110.917 38.1799 111.245 39.3126 110.708 40.4654C110.17 41.6182 109.091 42.095 107.931 41.554ZM108.222 40.9305C108.947 41.2686 109.591 40.8717 109.946 40.1104C110.305 39.3419 110.191 38.6005 109.466 38.2624C108.741 37.9243 108.101 38.3139 107.742 39.0825C107.387 39.8438 107.497 40.5924 108.222 40.9305ZM113.902 39.5894C114.032 39.6503 114.123 39.7015 114.225 39.7667L113.89 40.4845L113.876 40.4777C113.201 40.0129 112.384 40.2321 112.015 41.0224L111.133 42.9147L110.371 42.5596L112.099 38.8547L112.861 39.2098L112.536 39.9058L112.55 39.9126C112.963 39.5399 113.416 39.3629 113.902 39.5894ZM114.416 44.446L116.834 39.262L117.798 39.7118L118.317 44.694L118.331 44.7007L120.147 40.8073L121.01 41.2097L118.592 46.3936L117.635 45.9473L117.102 40.9762L117.088 40.9695L115.279 44.8484L114.416 44.446ZM121.714 44.2657L123.955 45.3106L123.61 46.0501L121.369 45.0053L120.341 47.2094L119.479 46.807L121.896 41.623L125.521 43.3137L125.18 44.046L122.418 42.7577L121.714 44.2657ZM125.111 49.4338L127.187 44.9821L125.527 44.2078L125.869 43.4755L130.045 45.4232L129.703 46.1555L128.05 45.3845L125.974 49.8362L125.111 49.4338Z" fill="#D0D5DD"/>
</g>
<circle cx="27" cy="11" r="5" fill="#F2F4F7"/>
<circle cx="24" cy="109" r="7" fill="#F2F4F7"/>
<circle cx="151" cy="35" r="7" fill="#F2F4F7"/>
<circle cx="140" cy="8" r="4" fill="#F2F4F7"/>
<g filter="url(#filter3_b_4500_648)">
<rect x="58" y="62" width="48" height="48" rx="24" fill="#344054" fill-opacity="0.4"/>
<path d="M91 95L87.5001 91.5M90 85.5C90 90.1944 86.1944 94 81.5 94C76.8056 94 73 90.1944 73 85.5C73 80.8056 76.8056 77 81.5 77C86.1944 77 90 80.8056 90 85.5Z" stroke="white" stroke-width="2" stroke-linecap="round" stroke-linejoin="round"/>
</g>
<defs>
<filter id="filter0_dd_4500_648" x="-0.560547" y="8.01978" width="104.547" height="112.499" filterUnits="userSpaceOnUse" color-interpolation-filters="sRGB">
<feFlood flood-opacity="0" result="BackgroundImageFix"/>
<feColorMatrix in="SourceAlpha" type="matrix" values="0 0 0 0 0 0 0 0 0 0 0 0 0 0 0 0 0 0 127 0" result="hardAlpha"/>
<feMorphology radius="4" operator="erode" in="SourceAlpha" result="effect1_dropShadow_4500_648"/>
<feOffset dy="8"/>
<feGaussianBlur stdDeviation="4"/>
<feComposite in2="hardAlpha" operator="out"/>
<feColorMatrix type="matrix" values="0 0 0 0 0.0627451 0 0 0 0 0.0941176 0 0 0 0 0.156863 0 0 0 0.03 0"/>
<feBlend mode="normal" in2="BackgroundImageFix" result="effect1_dropShadow_4500_648"/>
<feColorMatrix in="SourceAlpha" type="matrix" values="0 0 0 0 0 0 0 0 0 0 0 0 0 0 0 0 0 0 127 0" result="hardAlpha"/>
<feMorphology radius="4" operator="erode" in="SourceAlpha" result="effect2_dropShadow_4500_648"/>
<feOffset dy="20"/>
<feGaussianBlur stdDeviation="12"/>
<feComposite in2="hardAlpha" operator="out"/>
<feColorMatrix type="matrix" values="0 0 0 0 0.0627451 0 0 0 0 0.0941176 0 0 0 0 0.156863 0 0 0 0.08 0"/>
<feBlend mode="normal" in2="effect1_dropShadow_4500_648" result="effect2_dropShadow_4500_648"/>
<feBlend mode="normal" in="SourceGraphic" in2="effect2_dropShadow_4500_648" result="shape"/>
</filter>
<filter id="filter1_dd_4500_648" x="40.2822" y="8" width="83.3428" height="99.7831" filterUnits="userSpaceOnUse" color-interpolation-filters="sRGB">
<feFlood flood-opacity="0" result="BackgroundImageFix"/>
<feColorMatrix in="SourceAlpha" type="matrix" values="0 0 0 0 0 0 0 0 0 0 0 0 0 0 0 0 0 0 127 0" result="hardAlpha"/>
<feMorphology radius="4" operator="erode" in="SourceAlpha" result="effect1_dropShadow_4500_648"/>
<feOffset dy="8"/>
<feGaussianBlur stdDeviation="4"/>
<feComposite in2="hardAlpha" operator="out"/>
<feColorMatrix type="matrix" values="0 0 0 0 0.0627451 0 0 0 0 0.0941176 0 0 0 0 0.156863 0 0 0 0.03 0"/>
<feBlend mode="normal" in2="BackgroundImageFix" result="effect1_dropShadow_4500_648"/>
<feColorMatrix in="SourceAlpha" type="matrix" values="0 0 0 0 0 0 0 0 0 0 0 0 0 0 0 0 0 0 127 0" result="hardAlpha"/>
<feMorphology radius="4" operator="erode" in="SourceAlpha" result="effect2_dropShadow_4500_648"/>
<feOffset dy="20"/>
<feGaussianBlur stdDeviation="12"/>
<feComposite in2="hardAlpha" operator="out"/>
<feColorMatrix type="matrix" values="0 0 0 0 0.0627451 0 0 0 0 0.0941176 0 0 0 0 0.156863 0 0 0 0.08 0"/>
<feBlend mode="normal" in2="effect1_dropShadow_4500_648" result="effect2_dropShadow_4500_648"/>
<feBlend mode="normal" in="SourceGraphic" in2="effect2_dropShadow_4500_648" result="shape"/>
</filter>
<filter id="filter2_dd_4500_648" x="59.4526" y="8" width="104.547" height="112.499" filterUnits="userSpaceOnUse" color-interpolation-filters="sRGB">
<feFlood flood-opacity="0" result="BackgroundImageFix"/>
<feColorMatrix in="SourceAlpha" type="matrix" values="0 0 0 0 0 0 0 0 0 0 0 0 0 0 0 0 0 0 127 0" result="hardAlpha"/>
<feMorphology radius="4" operator="erode" in="SourceAlpha" result="effect1_dropShadow_4500_648"/>
<feOffset dy="8"/>
<feGaussianBlur stdDeviation="4"/>
<feComposite in2="hardAlpha" operator="out"/>
<feColorMatrix type="matrix" values="0 0 0 0 0.0627451 0 0 0 0 0.0941176 0 0 0 0 0.156863 0 0 0 0.03 0"/>
<feBlend mode="normal" in2="BackgroundImageFix" result="effect1_dropShadow_4500_648"/>
<feColorMatrix in="SourceAlpha" type="matrix" values="0 0 0 0 0 0 0 0 0 0 0 0 0 0 0 0 0 0 127 0" result="hardAlpha"/>
<feMorphology radius="4" operator="erode" in="SourceAlpha" result="effect2_dropShadow_4500_648"/>
<feOffset dy="20"/>
<feGaussianBlur stdDeviation="12"/>
<feComposite in2="hardAlpha" operator="out"/>
<feColorMatrix type="matrix" values="0 0 0 0 0.0627451 0 0 0 0 0.0941176 0 0 0 0 0.156863 0 0 0 0.08 0"/>
<feBlend mode="normal" in2="effect1_dropShadow_4500_648" result="effect2_dropShadow_4500_648"/>
<feBlend mode="normal" in="SourceGraphic" in2="effect2_dropShadow_4500_648" result="shape"/>
</filter>
<filter id="filter3_b_4500_648" x="50" y="54" width="64" height="64" filterUnits="userSpaceOnUse" color-interpolation-filters="sRGB">
<feFlood flood-opacity="0" result="BackgroundImageFix"/>
<feGaussianBlur in="BackgroundImageFix" stdDeviation="4"/>
<feComposite in2="SourceAlpha" operator="in" result="effect1_backgroundBlur_4500_648"/>
<feBlend mode="normal" in="SourceGraphic" in2="effect1_backgroundBlur_4500_648" result="shape"/>
</filter>
<linearGradient id="paint0_linear_4500_648" x1="45.7738" y1="79.2399" x2="19.2853" y2="31.4526" gradientUnits="userSpaceOnUse">
<stop stop-color="#E4E7EC"/>
<stop offset="1" stop-color="#F9FAFB"/>
</linearGradient>
<linearGradient id="paint1_linear_4500_648" x1="61.7916" y1="67.0755" x2="57.9807" y2="12.571" gradientUnits="userSpaceOnUse">
<stop stop-color="#E4E7EC"/>
<stop offset="1" stop-color="#F9FAFB"/>
</linearGradient>
<linearGradient id="paint2_linear_4500_648" x1="81.1199" y1="62.1785" x2="100.701" y2="11.17" gradientUnits="userSpaceOnUse">
<stop stop-color="#E4E7EC"/>
<stop offset="1" stop-color="#F9FAFB"/>
</linearGradient>
</defs>
</svg>
