<svg width="181" height="63" viewBox="0 0 181 63" fill="none" xmlns="http://www.w3.org/2000/svg"><path fill-rule="evenodd" clip-rule="evenodd" d="M57.2246 44.8549C56.071 42.847 54.7241 40.761 53.213 38.6285H56.9988C57.6294 38.6285 58.1415 38.0484 58.1415 37.3336V29.4387C58.1415 28.7239 57.6294 28.1438 56.9988 28.1438H28.3963C25.8155 28.1438 23.5536 29.6797 22.2813 31.9886C17.7357 27.0736 13.8991 22.1243 11.2326 17.695C7.90814 12.1734 6.77447 8.05335 8.11957 6.38887C8.58615 5.8106 9.3553 5.5255 10.3851 5.5255C12.3189 5.5255 15.1749 6.53141 18.6744 8.48705C20.5463 9.53312 22.5328 10.8121 24.5887 12.2838H13.7041C13.7041 18.1628 17.9144 22.9293 23.1089 22.9293H56.7327C57.5128 22.9293 58.1433 22.2145 58.1433 21.3311V13.8801C58.1433 12.9986 57.5109 12.2818 56.7327 12.2818H27.9734C23.6192 8.83439 19.3743 5.97927 15.4957 3.92324C8.33098 0.130456 3.20029 -0.497993 1.05142 2.16238C-3.31924 7.57147 6.31152 24.6099 22.9758 40.9557C30.8532 48.6819 39.0459 54.9804 46.0448 58.6909C50.2896 60.9416 53.82 62.08 56.441 62.08C58.2417 62.08 59.6141 61.5419 60.489 60.4576C62.6379 57.7974 61.4787 52.2577 57.2246 44.8568V44.8549ZM55.8577 53.2114C55.3985 53.7797 54.6348 54.0608 53.6069 54.0608C49.721 54.0608 42.0842 50.0432 33.0512 42.351V41.3653C33.0512 39.8534 34.1339 38.6285 35.468 38.6285H50.6232C51.3922 39.7449 52.1014 40.8412 52.7429 41.9055C56.0673 47.4269 57.201 51.5469 55.8559 53.2114H55.8577ZM21.1929 42.1372V53.2928C21.1929 54.0076 21.705 54.5879 22.3356 54.5879H31.9063C32.5369 54.5879 33.049 54.0076 33.049 53.2928V52.6201C29.269 49.6726 25.4231 46.2935 21.6503 42.5929C21.5646 42.5098 21.4807 42.4251 21.3968 42.3407C21.3291 42.2725 21.2613 42.2045 21.1929 42.1372ZM83.1298 12.4599H68.936V54.5954H77.419V40.2361H83.0743C86.2901 40.2361 89.0623 39.6817 91.391 38.5729C93.7566 37.4271 95.5678 35.8193 96.8246 33.7495C98.1183 31.6427 98.7651 29.1663 98.7651 26.3203C98.7651 23.4743 98.1183 21.0164 96.8246 18.9466C95.5678 16.8768 93.7566 15.2875 91.391 14.1786C89.0623 13.0328 86.3086 12.4599 83.1298 12.4599ZM90.0603 26.3758C90.0603 31.1807 87.2881 33.5831 81.7437 33.5831H77.419V19.1684H81.7437C87.2881 19.1684 90.0603 21.5708 90.0603 26.3758ZM121.263 54.5954H128.969V26.3203H121.263L121.152 30.4784C120.265 28.8891 119.026 27.6509 117.437 26.7638C115.848 25.8768 114.073 25.4332 112.114 25.4332C109.638 25.4332 107.383 26.0985 105.35 27.4291C103.354 28.7597 101.765 30.5708 100.582 32.8624C99.399 35.117 98.8076 37.6673 98.8076 40.5133C98.8076 43.4332 99.3621 46.0205 100.471 48.2751C101.58 50.5297 103.095 52.3039 105.017 53.5975C106.976 54.8542 109.213 55.4825 111.726 55.4825C116.088 55.4825 119.23 53.7823 121.152 50.3819L121.263 54.5954ZM121.318 40.4579C121.318 42.7495 120.653 44.6345 119.322 46.1129C117.991 47.5544 116.254 48.2751 114.11 48.2751C112.003 48.2751 110.285 47.5544 108.954 46.1129C107.623 44.6345 106.958 42.7495 106.958 40.4579C106.958 38.1663 107.623 36.2998 108.954 34.8583C110.285 33.3799 112.003 32.6406 114.11 32.6406C116.254 32.6406 117.991 33.3799 119.322 34.8583C120.653 36.2998 121.318 38.1663 121.318 40.4579ZM133.361 46.7228C134.691 47.6098 136.188 48.3121 137.852 48.8295C139.515 49.31 141.123 49.5503 142.676 49.5503C145.854 49.5503 147.444 48.6447 147.444 46.8336C147.444 45.9835 147.111 45.3182 146.446 44.8378C145.78 44.3573 144.394 43.8213 142.287 43.2299C138.887 42.3059 136.466 41.1601 135.024 39.7926C133.62 38.425 132.917 36.5585 132.917 34.193C132.917 31.4579 133.934 29.3141 135.967 27.7618C138.037 26.2094 140.864 25.4332 144.45 25.4332C146.224 25.4332 147.998 25.6365 149.772 26.0431C151.547 26.4497 153.007 26.9856 154.153 27.6509L153.21 33.5277C150.438 32.0862 147.647 31.3655 144.838 31.3655C142.066 31.3655 140.679 32.2156 140.679 33.9158C140.679 34.7289 141.031 35.3757 141.733 35.8562C142.435 36.3367 143.747 36.8357 145.669 37.3532C149.218 38.3881 151.731 39.6078 153.21 41.0123C154.725 42.4168 155.483 44.3203 155.483 46.7228C155.483 49.4209 154.374 51.5647 152.157 53.154C149.976 54.7063 146.963 55.4825 143.119 55.4825C141.086 55.4825 139.072 55.2238 137.076 54.7063C135.117 54.1889 133.546 53.5236 132.363 52.7104L133.361 46.7228ZM162.369 48.8295C160.705 48.3121 159.208 47.6098 157.878 46.7228L156.88 52.7104C158.062 53.5236 159.633 54.1889 161.592 54.7063C163.588 55.2238 165.603 55.4825 167.636 55.4825C171.48 55.4825 174.493 54.7063 176.673 53.154C178.891 51.5647 180 49.4209 180 46.7228C180 44.3203 179.242 42.4168 177.727 41.0123C176.248 39.6078 173.735 38.3881 170.186 37.3532C168.264 36.8357 166.952 36.3367 166.25 35.8562C165.547 35.3757 165.196 34.7289 165.196 33.9158C165.196 32.2156 166.582 31.3655 169.355 31.3655C172.164 31.3655 174.955 32.0862 177.727 33.5277L178.669 27.6509C177.523 26.9856 176.063 26.4497 174.289 26.0431C172.515 25.6365 170.741 25.4332 168.967 25.4332C165.381 25.4332 162.553 26.2094 160.484 27.7618C158.451 29.3141 157.434 31.4579 157.434 34.193C157.434 36.5585 158.136 38.425 159.541 39.7926C160.983 41.1601 163.404 42.3059 166.804 43.2299C168.911 43.8213 170.297 44.3573 170.963 44.8378C171.628 45.3182 171.961 45.9835 171.961 46.8336C171.961 48.6447 170.371 49.5503 167.192 49.5503C165.64 49.5503 164.032 49.31 162.369 48.8295Z" fill="black"></path></svg>