<?xml version="1.0" standalone="no"?>
<!DOCTYPE svg PUBLIC "-//W3C//DTD SVG 20010904//EN"
 "http://www.w3.org/TR/2001/REC-SVG-20010904/DTD/svg10.dtd">
<svg version="1.0" xmlns="http://www.w3.org/2000/svg"
 width="320.000000pt" height="320.000000pt" viewBox="0 0 320.000000 320.000000"
 preserveAspectRatio="xMidYMid meet">

<!-- White Background Circle -->
<circle cx="160" cy="160" r="160" fill="#FFFFFF"/>

<g transform="translate(0.000000,320.000000) scale(0.100000,-0.100000)"
fill="#000000" stroke="none">
<path d="M1408 3189 c-343 -42 -697 -215 -938 -458 -230 -232 -369 -494 -441
-832 -33 -152 -33 -436 -1 -597 65 -325 221 -615 449 -840 231 -226 505 -370
825 -434 162 -32 434 -32 596 0 386 77 716 278 960 585 156 196 262 430 314
691 29 146 32 433 5 571 -129 666 -618 1164 -1272 1295 -117 24 -380 34 -497
19z m688 -813 c56 -26 98 -74 120 -133 16 -46 19 -419 4 -474 -23 -82 -99
-153 -180 -167 -31 -6 -44 -13 -42 -23 2 -8 73 -120 158 -250 l154 -235 0 -91
c0 -68 4 -94 15 -103 32 -26 12 -80 -30 -80 -45 0 -62 57 -25 83 19 13 21 23
18 98 l-3 84 -90 0 -90 0 -3 -181 c-2 -152 0 -183 13 -194 32 -26 12 -80 -30
-80 -42 0 -62 54 -30 80 12 10 15 45 15 196 l0 184 -90 0 -90 0 0 -88 c0 -48
4 -92 9 -98 19 -20 22 -52 6 -68 -44 -44 -105 6 -71 58 12 19 16 48 16 111 l0
85 -170 255 -170 255 -40 0 -40 0 0 -344 c0 -293 2 -345 15 -356 32 -26 12
-80 -30 -80 -42 0 -62 54 -30 80 12 10 15 31 13 99 l-3 86 -72 3 -73 3 0 -181
c0 -148 3 -185 16 -205 19 -29 11 -61 -17 -70 -49 -16 -83 27 -55 70 13 20 16
57 16 205 l0 180 -75 0 -75 0 0 -89 c0 -66 4 -92 15 -101 32 -26 12 -80 -30
-80 -42 0 -62 54 -30 80 13 11 15 82 17 499 l3 486 395 5 395 5 3 71 c2 51 -1
74 -11 82 -10 8 -128 13 -398 14 l-384 3 -3 155 c-1 85 0 160 2 167 4 10 106
13 508 13 l503 0 51 -24z"/>
</g>
</svg>
