<svg width="48" height="48" viewBox="0 0 48 48" fill="none" xmlns="http://www.w3.org/2000/svg">
<rect width="48" height="48" rx="8" fill="url(#paint0_linear_144_5116)"/>
<path d="M22.8387 12.734C23.9632 18.2975 28.0538 22.6435 33.2903 23.8382C28.0538 25.0329 23.9632 29.3789 22.8387 34.9425C21.7142 29.3789 17.6236 25.0329 12.3871 23.8382C17.6236 22.6435 21.7142 18.2975 22.8387 12.734Z" fill="white"/>
<path d="M30.5523 12.387C30.8417 13.7344 31.8942 14.787 33.2416 15.0763C31.8942 15.3657 30.8417 16.4182 30.5523 17.7656C30.263 16.4182 29.2105 15.3657 27.863 15.0763C29.2105 14.787 30.263 13.7344 30.5523 12.387Z" fill="white"/>
<path d="M15.0889 29.8675C15.3059 30.8781 16.0953 31.6675 17.1059 31.8845C16.0953 32.1015 15.3059 32.8909 15.0889 33.9014C14.8719 32.8909 14.0825 32.1015 13.0719 31.8845C14.0825 31.6675 14.8719 30.8781 15.0889 29.8675Z" fill="white"/>
<defs>
<linearGradient id="paint0_linear_144_5116" x1="24" y1="0" x2="24" y2="48" gradientUnits="userSpaceOnUse">
<stop stop-color="#4E9FF8"/>
<stop offset="1" stop-color="#007AFF"/>
</linearGradient>
</defs>
</svg>
