<svg width="25" height="25" viewBox="0 0 25 25" fill="none" xmlns="http://www.w3.org/2000/svg">
    <path fill-rule="evenodd" clip-rule="evenodd" d="M16.3335 3.33252H8.3335C5.57208 3.33252 3.3335 5.5711 3.3335 8.33252V16.3325C3.3335 19.0939 5.57208 21.3325 8.3335 21.3325H16.3335C19.0949 21.3325 21.3335 19.0939 21.3335 16.3325V8.33252C21.3335 5.5711 19.0949 3.33252 16.3335 3.33252ZM19.5835 16.3325C19.578 18.1251 18.1261 19.577 16.3335 19.5825H8.3335C6.54085 19.577 5.08899 18.1251 5.0835 16.3325V8.33252C5.08899 6.53987 6.54085 5.08801 8.3335 5.08252H16.3335C18.1261 5.08801 19.578 6.53987 19.5835 8.33252V16.3325ZM17.0835 8.58252C17.6358 8.58252 18.0835 8.1348 18.0835 7.58252C18.0835 7.03024 17.6358 6.58252 17.0835 6.58252C16.5312 6.58252 16.0835 7.03024 16.0835 7.58252C16.0835 8.1348 16.5312 8.58252 17.0835 8.58252ZM12.3335 7.83252C9.84822 7.83252 7.8335 9.84724 7.8335 12.3325C7.8335 14.8178 9.84822 16.8325 12.3335 16.8325C14.8188 16.8325 16.8335 14.8178 16.8335 12.3325C16.8362 11.1382 16.3629 9.99209 15.5184 9.1476C14.6739 8.30311 13.5278 7.82986 12.3335 7.83252ZM9.5835 12.3325C9.5835 13.8513 10.8147 15.0825 12.3335 15.0825C13.8523 15.0825 15.0835 13.8513 15.0835 12.3325C15.0835 10.8137 13.8523 9.58252 12.3335 9.58252C10.8147 9.58252 9.5835 10.8137 9.5835 12.3325Z" fill="white"/>
    </svg>
    