<svg width="25" height="25" viewBox="0 0 25 25" fill="none" xmlns="http://www.w3.org/2000/svg">
    <path fill-rule="evenodd" clip-rule="evenodd" d="M4.8335 3.33252C4.00507 3.33252 3.3335 4.00409 3.3335 4.83252V19.8325C3.3335 20.6609 4.00507 21.3325 4.8335 21.3325H19.8335C20.6619 21.3325 21.3335 20.6609 21.3335 19.8325V4.83252C21.3335 4.00409 20.6619 3.33252 19.8335 3.33252H4.8335ZM8.85426 7.33524C8.85989 8.29149 8.14411 8.88071 7.29473 8.87649C6.49457 8.87227 5.79707 8.23524 5.80129 7.33665C5.80551 6.49149 6.47348 5.81227 7.34114 5.83196C8.22145 5.85165 8.85989 6.49712 8.85426 7.33524ZM12.6132 10.0943H10.0932H10.0918V18.6541H12.7552V18.4544C12.7552 18.0745 12.7549 17.6945 12.7546 17.3144C12.7538 16.3006 12.7529 15.2857 12.7581 14.2722C12.7595 14.0261 12.7707 13.7702 12.834 13.5353C13.0716 12.6578 13.8606 12.0911 14.7409 12.2304C15.3062 12.3189 15.6802 12.6466 15.8377 13.1796C15.9348 13.5128 15.9784 13.8714 15.9826 14.2188C15.994 15.2664 15.9924 16.314 15.9908 17.3617C15.9902 17.7315 15.9896 18.1015 15.9896 18.4713V18.6527H18.6615V18.4474C18.6615 17.9954 18.6613 17.5435 18.661 17.0916C18.6605 15.9621 18.6599 14.8326 18.6629 13.7027C18.6643 13.1922 18.6095 12.6888 18.4843 12.1952C18.2973 11.4611 17.9106 10.8536 17.282 10.4149C16.8362 10.1027 16.3468 9.90162 15.7998 9.87912C15.7375 9.87653 15.6747 9.87314 15.6116 9.86973C15.3319 9.85461 15.0476 9.83925 14.7802 9.89318C14.0152 10.0465 13.3431 10.3966 12.8354 11.0139C12.7764 11.0847 12.7187 11.1566 12.6326 11.2639L12.6132 11.2882V10.0943ZM6.01514 18.6569H8.66592V10.0998H6.01514V18.6569Z" fill="white"/>
    </svg>
    