<svg width="20" height="20" viewBox="0 0 20 20" fill="none" xmlns="http://www.w3.org/2000/svg">
    <g clip-path="url(#clip0_63_8701)">
    <path d="M6.26702 12.9391C7.69873 10.3305 9.31204 8.35433 13.9502 8.55195C14.0308 8.55195 14.152 8.6705 14.152 8.74963V10.7258C14.152 10.8642 14.3537 11.121 14.5552 10.9235L19.9395 6.45728C20.0202 6.39801 20.0202 6.27946 19.9395 6.22018L14.5552 2.03027C14.4544 1.95128 14.152 2.03027 14.152 2.22794V4.20415C14.152 4.28314 14.031 4.40183 13.9502 4.40183C5.88387 5.19224 6.30735 11.3186 6.00486 12.8007C5.96449 12.9587 6.18633 13.0772 6.26707 12.939L6.26702 12.9391Z" fill="white"/>
    <path d="M17.3333 13V17.2H2.66667V13H0V18.6C0 19.3742 0.597333 20 1.33333 20H18.6667C19.404 20 20 19.3742 20 18.6V13H17.3333Z" fill="white"/>
    <path d="M6.95654 17.3333L2.78267 17.3333L2.78267 2.66667L6.95654 2.66667L6.95654 0L1.39138 -2.43261e-07C0.621998 -2.76892e-07 9.15266e-05 0.597333 9.14945e-05 1.33333L9.07368e-05 18.6667C9.07046e-05 19.404 0.621997 20 1.39138 20L6.95654 20L6.95654 17.3333Z" fill="white"/>
    </g>
    <defs>
    <clipPath id="clip0_63_8701">
    <rect width="20" height="20" fill="white"/>
    </clipPath>
    </defs>
    </svg>
    