<svg width="15" height="14" viewBox="0 0 15 14" fill="none" xmlns="http://www.w3.org/2000/svg">
<path d="M7.79502 0.180908L9.85718 4.26854C9.88096 4.31613 9.91619 4.35724 9.95979 4.38825C10.0034 4.41926 10.054 4.43923 10.1072 4.44641L14.7167 5.10518C14.7776 5.11338 14.835 5.13836 14.8822 5.17726C14.9294 5.21616 14.9646 5.26741 14.9837 5.32514C15.0029 5.38287 15.0052 5.44475 14.9904 5.50371C14.9756 5.56267 14.9443 5.61633 14.9001 5.65854L11.5659 8.84119C11.5274 8.87771 11.4985 8.923 11.4818 8.9731C11.4651 9.0232 11.4611 9.07659 11.4701 9.12858L12.2578 13.6214C12.2669 13.6812 12.2591 13.7424 12.2354 13.7981C12.2116 13.8539 12.1727 13.9022 12.123 13.9376C12.0734 13.9729 12.0148 13.9941 11.9537 13.9988C11.8926 14.0034 11.8314 13.9914 11.7768 13.9639L7.65415 11.8427C7.60655 11.8182 7.55364 11.8053 7.49995 11.8053C7.44625 11.8053 7.39335 11.8182 7.34574 11.8427L3.22309 13.9639C3.16849 13.9914 3.1073 14.0034 3.04622 13.9988C2.98514 13.9941 2.92654 13.9729 2.87685 13.9376C2.82716 13.9022 2.7883 13.8539 2.76454 13.7981C2.74077 13.7424 2.73302 13.6812 2.74214 13.6214L3.529 9.12858C3.53818 9.07665 3.53432 9.02329 3.51775 8.97319C3.50118 8.92308 3.47242 8.87775 3.43397 8.84119L0.0998397 5.65854C0.0556059 5.61627 0.0243166 5.56255 0.00955908 5.50353C-0.00519847 5.44451 -0.00282992 5.38258 0.0163954 5.32482C0.0356207 5.26707 0.0709256 5.21584 0.118263 5.17699C0.1656 5.13814 0.223055 5.11325 0.284048 5.10518L4.89349 4.44641C4.94658 4.43882 4.99703 4.41869 5.04057 4.38773C5.0841 4.35676 5.11943 4.31588 5.14355 4.26854L7.20488 0.180908C7.23316 0.127795 7.2756 0.0833256 7.3276 0.0523029C7.3796 0.0212802 7.4392 0.00488281 7.49995 0.00488281C7.5607 0.00488281 7.62029 0.0212802 7.6723 0.0523029C7.7243 0.0833256 7.76674 0.127795 7.79502 0.180908Z" fill="currentColor"/>
</svg>
