<svg width="25" height="25" viewBox="0 0 25 25" fill="none" xmlns="http://www.w3.org/2000/svg">
    <path d="M21.9263 7.29285C21.8124 6.87025 21.5898 6.48486 21.2807 6.17502C20.9716 5.86518 20.5867 5.64171 20.1643 5.52685C18.5983 5.09685 12.3333 5.08985 12.3333 5.08985C12.3333 5.08985 6.06934 5.08285 4.50234 5.49385C4.08026 5.614 3.69616 5.84063 3.3869 6.15199C3.07765 6.46334 2.85362 6.84897 2.73634 7.27185C2.32334 8.83785 2.31934 12.0859 2.31934 12.0859C2.31934 12.0859 2.31534 15.3499 2.72534 16.8999C2.95534 17.7569 3.63034 18.4339 4.48834 18.6649C6.07034 19.0949 12.3183 19.1019 12.3183 19.1019C12.3183 19.1019 18.5833 19.1089 20.1493 18.6989C20.5718 18.5842 20.9571 18.3612 21.267 18.052C21.5769 17.7428 21.8007 17.3581 21.9163 16.9359C22.3303 15.3709 22.3333 12.1239 22.3333 12.1239C22.3333 12.1239 22.3533 8.85885 21.9263 7.29285ZM10.3293 15.0949L10.3343 9.09485L15.5413 12.0999L10.3293 15.0949Z" fill="white"/>
    </svg>
    